# generated from PmQm by Jehee Lee
:FULLY-SPECIFIED
:DEGREES
17
root 12.5387 39.8908 4.41821 -80.3107 88.5233 -75.4878
RightUpLeg 3.48981 1.74946 2.19848
RightLeg 2.57269 5.415 -1.08729
RightFoot -0.795654 -0.438952 4.08106
RightToes 4.07452e-010 -1.59028e-015 9.93923e-017
Spine -2.08251 -1.03725 0.038537
Spine1 9.85828 -1.69537 1.84761
HEad -24.7602 -1.11527 2.86309
LeftShoulder1 9.93923e-017 -0 1.22299e-017
LeftArm 2.83362 37.3361 -79.9461
LeftForeArm -17.8689 -14.1727 -2.3515
LeftHand 1.23968 10.3274 -7.5912
RightShoulder 1.98785e-016 -4.96962e-017 1.55301e-017
RightArm 21.9807 -41.3315 83.3591
RightForeArm -39.1386 18.8781 -8.27475
RightHand 1.63745 -15.6162 -2.29318
LeftUpLeg -0.39249 -1.78244 1.25007
LeftLeg 9.93874 -2.29208 3.69498
LeftFoot -4.10884 0.252353 -3.21979
LeftToes 1.53707e-010 -1.11459e-010 1.58109e-011
18
root 12.5577 39.889 4.40885 -78.0948 88.5107 -73.2993
RightUpLeg 3.46022 1.74637 2.18244
RightLeg 2.62005 5.48257 -1.09569
RightFoot -0.830109 -0.438298 4.08525
RightToes 4.07452e-010 -1.59028e-015 9.93923e-017
Spine -2.22849 -1.0178 -0.0647625
Spine1 10.0053 -1.7135 2.00544
HEad -24.9532 -1.10774 2.7295
LeftShoulder1 9.93923e-017 -0 1.22299e-017
LeftArm 2.89031 37.3275 -80.0778
LeftForeArm -17.9936 -14.2342 -2.31317
LeftHand 1.23735 10.2648 -7.50073
RightShoulder 1.98785e-016 -4.96962e-017 1.55301e-017
RightArm 23.2528 -41.3416 83.4866
RightForeArm -39.6582 18.9572 -8.3932
RightHand 1.66932 -15.7129 -2.54024
LeftUpLeg -0.398307 -1.81451 1.23065
LeftLeg 9.97415 -2.1454 3.70516
LeftFoot -4.14643 0.249848 -3.19877
LeftToes 1.53707e-010 -1.11459e-010 1.58109e-011
19
root 12.5828 39.8882 4.39702 -77.757 88.5197 -72.9808
RightUpLeg 3.46512 1.70572 2.13531
RightLeg 2.64926 5.52909 -1.07621
RightFoot -0.876324 -0.440283 4.1134
RightToes 4.07452e-010 -1.59028e-015 9.93923e-017
Spine -2.40709 -1.00834 -0.107075
Spine1 10.1402 -1.71801 2.05521
HEad -25.0677 -0.975485 2.51785
LeftShoulder1 9.93923e-017 -0 1.22299e-017
LeftArm 2.79821 37.2649 -80.2214
LeftForeArm -18.1647 -14.144 -2.42162
LeftHand 1.25027 10.34 -7.25072
RightShoulder 1.98785e-016 -4.96962e-017 1.55301e-017
RightArm 24.2011 -41.4334 83.7105
RightForeArm -40.2053 19.0364 -8.54998
RightHand 1.72098 -15.8337 -2.98192
LeftUpLeg -0.372347 -1.84179 1.19238
LeftLeg 9.97199 -2.11172 3.71766
LeftFoot -4.17846 0.250208 -3.20531
LeftToes 1.53707e-010 -1.11459e-010 1.58109e-011
20
root 12.6154 39.8869 4.38484 -78.2351 88.5231 -73.4219
RightUpLeg 3.56942 1.66322 2.09808
RightLeg 2.63277 5.55832 -1.05267
RightFoot -0.929917 -0.443509 4.15192
RightToes 4.07452e-010 -1.59028e-015 9.93923e-017
Spine -2.54908 -0.999352 -0.0284585
Spine1 10.2396 -1.68903 1.95076
HEad -25.2701 -0.782711 2.39565
LeftShoulder1 9.93923e-017 -0 1.22299e-017
LeftArm 3.06393 37.1735 -80.3734
LeftForeArm -19.2223 -14.2296 -2.44731
LeftHand 1.28461 10.848 -7.39608
RightShoulder 1.98785e-016 -4.96962e-017 1.55301e-017
RightArm 25.4131 -41.6871 84.0161
RightForeArm -42.3996 19.2894 -9.41079
RightHand 1.69855 -15.843 -2.70452
LeftUpLeg -0.271553 -1.85063 1.16775
LeftLeg 9.96237 -2.15039 3.73577
LeftFoot -4.22489 0.251899 -3.22434
LeftToes 1.53707e-010 -1.11459e-010 1.58109e-011
21
root 12.6405 39.8846 4.37667 -78.0449 88.5103 -73.2141
RightUpLeg 3.6238 1.67106 2.1009
RightLeg 2.64343 5.56329 -1.06526
RightFoot -0.98228 -0.445511 4.1755
RightToes 4.07452e-010 -1.59028e-015 9.93923e-017
Spine -2.62524 -0.972811 0.0678797
Spine1 10.2405 -1.63716 1.83786
HEad -25.7747 -0.588151 2.40098
LeftShoulder1 9.93923e-017 -0 1.22299e-017
LeftArm 5.35565 37.1978 -80.7394
LeftForeArm -22.167 -15.4179 -1.60822
LeftHand 1.29748 11.1591 -7.7151
RightShoulder 1.98785e-016 -4.96962e-017 1.55301e-017
RightArm 29.0684 -42.1121 84.4767
RightForeArm -47.9914 19.8304 -12.1254
RightHand 1.61937 -15.7307 -1.91987
LeftUpLeg -0.223414 -1.87726 1.15799
LeftLeg 9.99127 -2.12051 3.7637
LeftFoot -4.27258 0.251259 -3.21963
LeftToes 1.53707e-010 -1.11459e-010 1.58109e-011
22
root 12.6554 39.882 4.37075 -78.0929 88.4986 -73.3193
RightUpLeg 3.56202 1.71976 2.12843
RightLeg 2.69122 5.51885 -1.10936
RightFoot -1.02199 -0.447506 4.19751
RightToes 4.07452e-010 -1.59028e-015 9.93923e-017
Spine -2.77896 -0.935765 0.156775
Spine1 10.2628 -1.57704 1.74296
HEad -26.5223 -0.403487 2.38951
LeftShoulder1 9.93923e-017 -0 1.22299e-017
LeftArm 12.7757 37.3808 -81.5762
LeftForeArm -29.7618 -18.6807 1.83662
LeftHand 1.27877 10.7717 -7.3904
RightShoulder 1.98785e-016 -4.96962e-017 1.55301e-017
RightArm 35.0194 -42.6422 85.2321
RightForeArm -54.9793 20.5869 -17.0386
RightHand 1.65182 -15.7825 -2.23538
LeftUpLeg -0.28869 -1.94134 1.14434
LeftLeg 10.0455 -2.02541 3.79443
LeftFoot -4.30915 0.248089 -3.18938
LeftToes 1.53707e-010 -1.11459e-010 1.58109e-011
23
root 12.6839 39.8822 4.36028 -78.4372 88.4626 -73.6686
RightUpLeg 3.64113 1.77294 2.17877
RightLeg 2.61693 5.45614 -1.14533
RightFoot -1.02439 -0.451041 4.23481
RightToes 4.07452e-010 -1.59028e-015 9.93923e-017
Spine -3.11888 -0.885809 0.401145
Spine1 10.4981 -1.47814 1.49544
HEad -27.1846 -0.226741 2.28021
LeftShoulder1 9.93923e-017 -0 1.22299e-017
LeftArm 25.5698 37.6555 -82.777
LeftForeArm -43.6165 -23.312 9.93341
LeftHand 1.27514 10.1954 -5.91111
RightShoulder 1.98785e-016 -4.96962e-017 1.55301e-017
RightArm 35.445 -42.9865 85.9718
RightForeArm -55.127 22.6647 -21.5797
RightHand 1.84526 -16.1984 -3.88191
LeftUpLeg -0.256952 -1.92777 1.16091
LeftLeg 10.0569 -2.02507 3.81579
LeftFoot -4.36354 0.245976 -3.16938
LeftToes 1.53707e-010 -1.11459e-010 1.58109e-011
24
root 12.7323 39.8857 4.3449 -76.3782 88.3665 -71.4556
RightUpLeg 4.01307 1.82396 2.25774
RightLeg 2.34941 5.46884 -1.15987
RightFoot -0.977836 -0.454268 4.26855
RightToes 4.07452e-010 -1.59028e-015 9.93923e-017
Spine -3.42515 -0.795403 0.8431
Spine1 10.7311 -1.30422 1.06418
HEad -27.5183 -0.0539415 2.13022
LeftShoulder1 9.93923e-017 -0 1.22299e-017
LeftArm 31.0815 37.7221 -83.4252
LeftForeArm -51.141 -28.2364 18.5562
LeftHand 1.31964 9.94836 -3.25282
RightShoulder 1.98785e-016 -4.96962e-017 1.55301e-017
RightArm 28.0282 -42.9341 86.4394
RightForeArm -48.6141 27.9068 -25.0418
RightHand 2.0349 -16.7627 -5.12877
LeftUpLeg 0.0255261 -1.72649 1.24133
LeftLeg 9.99047 -2.15942 3.81957
LeftFoot -4.44251 0.246879 -3.17926
LeftToes 1.53707e-010 -1.11459e-010 1.58109e-011
25
root 12.7609 39.8895 4.33214 -71.902 88.2754 -66.838
RightUpLeg 4.30165 1.86081 2.29857
RightLeg 2.13441 5.57766 -1.17255
RightFoot -0.925528 -0.455134 4.27773
RightToes 4.07452e-010 -1.59028e-015 9.93923e-017
Spine -3.30604 -0.679734 1.18827
Spine1 10.3169 -1.11139 0.733385
HEad -27.5628 0.123174 1.93521
LeftShoulder1 9.93923e-017 -0 1.22299e-017
LeftArm 22.1192 37.2893 -83.246
LeftForeArm -44.1349 -36.8371 22.0358
LeftHand 1.38193 9.79226 0.109381
RightShoulder 1.98785e-016 -4.96962e-017 1.55301e-017
RightArm 21.6051 -42.4912 86.9845
RightForeArm -45.6122 35.3899 -30.9134
RightHand 2.19302 -17.3307 -5.90462
LeftUpLeg 0.287792 -1.4979 1.30005
LeftLeg 9.89737 -2.2399 3.80783
LeftFoot -4.47383 0.247845 -3.18985
LeftToes 1.53707e-010 -1.11459e-010 1.58109e-011
26
root 12.7359 39.8904 4.32563 -69.6358 88.3158 -64.6621
RightUpLeg 4.10202 1.8414 2.21809
RightLeg 2.23357 5.66025 -1.18645
RightFoot -0.927998 -0.45474 4.27452
RightToes 4.07452e-010 -1.59028e-015 9.93923e-017
Spine -2.65088 -0.604298 1.14717
Spine1 8.90917 -1.00781 0.767689
HEad -27.4747 0.2924 1.63048
LeftShoulder1 9.93923e-017 -0 1.22299e-017
LeftArm 16.4243 36.5813 -83.5205
LeftForeArm -43.3364 -47.7362 28.5217
LeftHand 1.4317 9.65602 3.07515
RightShoulder 1.98785e-016 -4.96962e-017 1.55301e-017
RightArm 17.6515 -41.3041 87.8435
RightForeArm -45.5534 44.035 -39.5596
RightHand 2.56686 -18.1256 -8.2816
LeftUpLeg 0.185007 -1.52395 1.21306
LeftLeg 9.85066 -2.13916 3.79801
LeftFoot -4.40015 0.244991 -3.16274
LeftToes 1.53707e-010 -1.11459e-010 1.58109e-011
27
root 12.6868 39.8887 4.32125 -73.5909 88.481 -68.8269
RightUpLeg 3.67224 1.76032 2.06773
RightLeg 2.50569 5.60278 -1.18036
RightFoot -0.974468 -0.455131 4.28101
RightToes 4.07452e-010 -1.59028e-015 9.93923e-017
Spine -1.7649 -0.580424 0.871203
Spine1 6.96865 -0.988268 1.03373
HEad -27.3504 0.414097 1.32227
LeftShoulder1 9.93923e-017 -0 1.22299e-017
LeftArm 12.6655 34.8283 -84.3618
LeftForeArm -49.9316 -59.283 39.4575
LeftHand 1.54009 9.96638 5.22455
RightShoulder 1.98785e-016 -4.96962e-017 1.55301e-017
RightArm 15.4864 -39.039 89.1041
RightForeArm -49.036 52.2781 -51.7477
RightHand 3.17014 -19.1307 -11.9545
LeftUpLeg -0.135153 -1.78736 1.03296
LeftLeg 9.85601 -2.00532 3.80532
LeftFoot -4.28564 0.239482 -3.10967
LeftToes 1.53707e-010 -1.11459e-010 1.58109e-011
28
root 12.6703 39.8882 4.31664 -81.8957 88.5881 -77.1516
RightUpLeg 3.61126 1.68283 1.99328
RightLeg 2.58726 5.45586 -1.15941
RightFoot -0.994256 -0.456732 4.30227
RightToes 4.07452e-010 -1.59028e-015 9.93923e-017
Spine -0.97656 -0.538564 0.778941
Spine1 5.20662 -0.924985 1.13212
HEad -27.2373 0.447805 1.21938
LeftShoulder1 9.93923e-017 -0 1.22299e-017
LeftArm 10.3386 31.485 -85.7469
LeftForeArm -68.2084 -68.9953 59.6809
LeftHand 1.71857 10.5573 7.37024
RightShoulder 1.98785e-016 -4.96962e-017 1.55301e-017
RightArm 13.5734 -35.4154 90.5564
RightForeArm -59.4602 58.7906 -68.513
RightHand 3.64396 -19.9399 -14.386
LeftUpLeg -0.21137 -1.96348 0.944708
LeftLeg 9.85625 -2.05289 3.81834
LeftFoot -4.23836 0.236395 -3.08124
LeftToes 1.53707e-010 -1.11459e-010 1.58109e-011
29
root 12.6978 39.8908 4.31447 -87.3034 88.5684 -82.3542
RightUpLeg 3.98672 1.65553 2.02602
RightLeg 2.41018 5.35029 -1.13932
RightFoot -0.963745 -0.459262 4.3359
RightToes 4.07452e-010 -1.59028e-015 9.93923e-017
Spine -0.309413 -0.42976 1.01313
Spine1 3.71821 -0.741682 0.87947
HEad -27.1309 0.368732 1.30081
LeftShoulder1 9.93923e-017 -0 1.22299e-017
LeftArm 9.08181 26.5944 -87.5723
LeftForeArm -100.265 -73.5352 93.0733
LeftHand 1.83724 10.7496 9.71936
RightShoulder 1.98785e-016 -4.96962e-017 1.55301e-017
RightArm 11.9116 -30.3801 92.1099
RightForeArm -75.031 62.1206 -88.5244
RightHand 3.88324 -20.3467 -15.4923
LeftUpLeg 0.0536883 -1.87108 0.998105
LeftLeg 9.811 -2.28 3.81299
LeftFoot -4.26631 0.23724 -3.0926
LeftToes 1.53707e-010 -1.11459e-010 1.58109e-011
30
root 12.7376 39.8942 4.31405 -89.0421 88.5425 -83.9218
RightUpLeg 4.33357 1.62864 2.04413
RightLeg 2.23551 5.32727 -1.11017
RightFoot -0.942715 -0.462498 4.38018
RightToes 4.07452e-010 -1.59028e-015 9.93923e-017
Spine 0.383935 -0.276946 1.35147
Spine1 2.04972 -0.488951 0.469014
HEad -26.8883 0.170846 1.33376
LeftShoulder1 9.93923e-017 -0 1.22299e-017
LeftArm 8.78845 20.5887 -89.758
LeftForeArm -130.024 -72.099 124.689
LeftHand 1.84342 10.5075 11.6702
RightShoulder 1.98785e-016 -4.96962e-017 1.55301e-017
RightArm 11.354 -24.2257 93.7384
RightForeArm -88.0361 62.3515 -106.38
RightHand 4.12897 -20.6076 -16.8504
LeftUpLeg 0.328693 -1.69595 1.06025
LeftLeg 9.73542 -2.503 3.78853
LeftFoot -4.29623 0.237788 -3.10193
LeftToes 1.53707e-010 -1.11459e-010 1.58109e-011
31
root 12.7727 39.8961 4.31024 -92.2306 88.5721 -87.0875
RightUpLeg 4.43798 1.53069 1.96208
RightLeg 2.21833 5.34265 -1.04052
RightFoot -0.983421 -0.46507 4.42129
RightToes 4.07452e-010 -1.59028e-015 9.93923e-017
Spine 1.15463 -0.113857 1.60265
Spine1 0.00299926 -0.236974 0.117031
HEad -26.3246 -0.101628 1.24221
LeftShoulder1 9.93923e-017 -0 1.22299e-017
LeftArm 9.4335 13.9474 -92.2018
LeftForeArm -145.887 -68.334 142.444
LeftHand 1.79745 10.1171 13.5338
RightShoulder 1.98785e-016 -4.96962e-017 1.55301e-017
RightArm 11.9349 -17.5009 95.2676
RightForeArm -96.1478 61.07 -119.045
RightHand 4.60675 -21.1213 -19.3171
LeftUpLeg 0.438654 -1.64232 1.0312
LeftLeg 9.65599 -2.62766 3.77302
LeftFoot -4.29982 0.234668 -3.07589
LeftToes 1.53707e-010 -1.11459e-010 1.58109e-011
